<svg version="1.1" xmlns="http://www.w3.org/2000/svg" xmlns:xlink="http://www.w3.org/1999/xlink" width="611.5" height="111" viewBox="0,0,611.5,111"><g transform="translate(65.75,-124.5)"><g data-paper-data="{&quot;isPaintingLayer&quot;:true}" fill-rule="nonzero" stroke="none" stroke-width="0" stroke-linecap="butt" stroke-linejoin="miter" stroke-miterlimit="10" stroke-dasharray="" stroke-dashoffset="0" style="mix-blend-mode: normal"><path d="M-65.75,235.5v-111h611.5v111z" fill="#76d280"/><path d="M40.5,181c0,5.24671 -4.25329,9.5 -9.5,9.5c-5.24671,0 -9.5,-4.25329 -9.5,-9.5c0,-5.24671 4.25329,-9.5 9.5,-9.5c5.24671,0 9.5,4.25329 9.5,9.5z" fill="#25871e"/><path d="M95.5,186.5c0,7.1797 -5.8203,13 -13,13c-7.1797,0 -13,-5.8203 -13,-13c0,-7.1797 5.8203,-13 13,-13c7.1797,0 13,5.8203 13,13z" fill="#25871e"/><path d="M214.5,167.5c0,7.73199 -7.16344,14 -16,14c-8.83656,0 -16,-6.26801 -16,-14c0,-7.73199 7.16344,-14 16,-14c8.83656,0 16,6.26801 16,14z" fill="#25871e"/><path d="M287.5,199c0,5.79899 -5.8203,10.5 -13,10.5c-7.1797,0 -13,-4.70101 -13,-10.5c0,-5.79899 5.8203,-10.5 13,-10.5c7.1797,0 13,4.70101 13,10.5z" fill="#25871e"/><path d="M346.5,167c0,-0.27614 -0.22386,-0.5 -0.5,-0.5c-0.27614,0 -0.5,0.22386 -0.5,0.5c0,0.27614 0.22386,0.5 0.5,0.5c0.27614,0 0.5,-0.22386 0.5,-0.5z" fill="#25871e"/><path d="M378.5,166.5c0,8.28427 -5.14873,15 -11.5,15c-6.35127,0 -11.5,-6.71573 -11.5,-15c0,-8.28427 5.14873,-15 11.5,-15c6.35127,0 11.5,6.71573 11.5,15z" fill="#25871e"/><path d="M341.5,198.5c0,2.20914 -1.79086,4 -4,4c-2.20914,0 -4,-1.79086 -4,-4c0,-2.20914 1.79086,-4 4,-4c2.20914,0 4,1.79086 4,4z" fill="#25871e"/><path d="M415.5,191c0,-0.27614 -0.22386,-0.5 -0.5,-0.5c-0.27614,0 -0.5,0.22386 -0.5,0.5c0,0.27614 0.22386,0.5 0.5,0.5c0.27614,0 0.5,-0.22386 0.5,-0.5z" fill="#25871e"/><path d="M450.5,189.5c0,7.1797 -6.04416,13 -13.5,13c-7.45584,0 -13.5,-5.8203 -13.5,-13c0,-7.1797 6.04416,-13 13.5,-13c7.45584,0 13.5,5.8203 13.5,13z" fill="#25871e"/></g></g></svg>